# xmcd CD database file
#
# Track frame offsets:
#	150
#	18157
#	36601
#	55453
#	73789
#	92242
#	111648
#	128893
#	146426
#	166002
#	183236
#
# Disc length: 2690 seconds
#
# Revision: 0
# Processed by: cddbd v1.5.1PL0 Copyright (c) Steve Scherf et al.
# Submitted via: CDex 1.51
#
DISCID=9f0a800b
DTITLE=Bonny Cepeda - Tú Tenías Razón
DYEAR=2002
DGENRE=Merengue
TTITLE0=Tu Tenías Razón
TTITLE1=Amarte Es Un Problema
TTITLE2=Ella Me Cuenta
TTITLE3=No Hagas Una Tormenta
TTITLE4=Al Que Le Debo Que Se Espere
TTITLE5=Déjame Vivir
TTITLE6=Volver A Amar
TTITLE7=El Doctor 2da Parte
TTITLE8=Cuando Llega El Lunes
TTITLE9=¿Como te olvido?
TTITLE10=Te Hice Mal
EXTD=YEAR: 2002
EXTT0=
EXTT1=
EXTT2=
EXTT3=
EXTT4=
EXTT5=
EXTT6=
EXTT7=
EXTT8=
EXTT9=
EXTT10=
PLAYORDER=
